/* XPM */
static char * xdigger_xpm[] = {
"32 32 4 1",
" 	c #030205",
".	c #CD871B",
"X	c #2DE7C0",
"o	c #CA1CBB",
"                                ",
"                                ",
"                                ",
"                                ",
"        ....        ....        ",
"        ....        ....        ",
"        ................        ",
"        ................        ",
"    ....    ........    ....    ",
"    ....    ........    ....    ",
"    ....    ........    ....    ",
"    ....    ........    ....    ",
"        ................        ",
"        ................        ",
"                                ",
"                                ",
"      XXXXXXXXXXXXXXXXXXXX      ",
"      XXXXXXXXXXXXXXXXXXXX      ",
"    XX    XXXXXXXXXXXX    XX    ",
"    XX    XXXXXXXXXXXX    XX    ",
"      XXXXXXXXXXXXXXXXXXXX      ",
"      XXXXXXXXXXXXXXXXXXXX      ",
"          XXXXXXXXXXXX          ",
"          XXXXXXXXXXXX          ",
"      oooooooooooooooooooo      ",
"      oooooooooooooooooooo      ",
"      oooooooooooooooooooo      ",
"      oooooooooooooooooooo      ",
"      oooo            oooo      ",
"      oooo            oooo      ",
"  oooooooo            oooooooo  ",
"  oooooooo            oooooooo  "};
